<svg width="246" height="50" viewBox="0 0 246 50" fill="none" xmlns="http://www.w3.org/2000/svg">
<path d="M29.8958 10.6857C23.831 11.7551 21.1663 19.0762 25.1249 23.7938V23.7938C29.0834 28.5114 36.756 27.1585 38.8623 21.3715V21.3715C40.9686 15.5845 35.9606 9.61635 29.8958 10.6857V10.6857Z" fill="white"/>
<path d="M49.1047 39.0087C55.1695 37.9393 57.8342 30.6183 53.8756 25.9006V25.9006C49.9171 21.183 42.2445 22.5359 40.1382 28.3229V28.3229C38.0319 34.1099 43.0398 40.0781 49.1047 39.0087V39.0087Z" fill="#07693A"/>
<path d="M75.3378 35.8473V32.1873H80.3178C81.2378 32.1873 81.9578 31.9173 82.4778 31.3773C82.9978 30.8373 83.2578 30.1773 83.2578 29.3973C83.2578 28.8573 83.1378 28.3773 82.8978 27.9573C82.6578 27.5373 82.3178 27.2073 81.8778 26.9673C81.4578 26.7273 80.9378 26.6073 80.3178 26.6073H75.3378V23.0373H79.9278C80.7078 23.0373 81.3378 22.8473 81.8178 22.4673C82.2978 22.0673 82.5378 21.4673 82.5378 20.6673C82.5378 19.8873 82.2978 19.3073 81.8178 18.9273C81.3378 18.5273 80.7078 18.3273 79.9278 18.3273H75.3378V14.6673H80.8278C82.1878 14.6673 83.3378 14.9173 84.2778 15.4173C85.2378 15.9173 85.9678 16.5873 86.4678 17.4273C86.9678 18.2673 87.2178 19.1973 87.2178 20.2173C87.2178 21.5173 86.7978 22.6173 85.9578 23.5173C85.1178 24.4173 83.8778 25.0373 82.2378 25.3773L82.3578 23.7873C84.1378 24.1273 85.5078 24.8173 86.4678 25.8573C87.4478 26.8973 87.9378 28.1773 87.9378 29.6973C87.9378 30.8573 87.6478 31.9073 87.0678 32.8473C86.5078 33.7673 85.6878 34.4973 84.6078 35.0373C83.5478 35.5773 82.2678 35.8473 80.7678 35.8473H75.3378ZM71.7378 35.8473V14.6673H76.3878V35.8473H71.7378ZM97.7365 36.1773C96.1565 36.1773 94.7465 35.8573 93.5065 35.2173C92.2865 34.5573 91.3265 33.6473 90.6265 32.4873C89.9265 31.3273 89.5765 30.0173 89.5765 28.5573C89.5765 27.0973 89.9165 25.7973 90.5965 24.6573C91.2965 23.4973 92.2365 22.5873 93.4165 21.9273C94.5965 21.2673 95.9265 20.9373 97.4065 20.9373C98.8465 20.9373 100.117 21.2473 101.217 21.8673C102.317 22.4873 103.177 23.3473 103.797 24.4473C104.437 25.5473 104.757 26.8073 104.757 28.2273C104.757 28.4873 104.737 28.7673 104.697 29.0673C104.677 29.3473 104.627 29.6773 104.547 30.0573L91.9765 30.0873V26.9373L102.597 26.9073L100.617 28.2273C100.597 27.3873 100.467 26.6973 100.227 26.1573C99.9865 25.5973 99.6265 25.1773 99.1465 24.8973C98.6865 24.5973 98.1165 24.4473 97.4365 24.4473C96.7165 24.4473 96.0865 24.6173 95.5465 24.9573C95.0265 25.2773 94.6165 25.7373 94.3165 26.3373C94.0365 26.9373 93.8965 27.6673 93.8965 28.5273C93.8965 29.3873 94.0465 30.1273 94.3465 30.7473C94.6665 31.3473 95.1065 31.8173 95.6665 32.1573C96.2465 32.4773 96.9265 32.6373 97.7065 32.6373C98.4265 32.6373 99.0765 32.5173 99.6565 32.2773C100.237 32.0173 100.747 31.6373 101.187 31.1373L103.707 33.6573C102.987 34.4973 102.117 35.1273 101.097 35.5473C100.077 35.9673 98.9565 36.1773 97.7365 36.1773ZM112.282 36.2073C111.422 36.2073 110.572 36.0973 109.732 35.8773C108.912 35.6573 108.142 35.3473 107.422 34.9473C106.722 34.5273 106.122 34.0473 105.622 33.5073L108.232 30.8673C108.712 31.3873 109.282 31.7973 109.942 32.0973C110.602 32.3773 111.322 32.5173 112.102 32.5173C112.642 32.5173 113.052 32.4373 113.332 32.2773C113.632 32.1173 113.782 31.8973 113.782 31.6173C113.782 31.2573 113.602 30.9873 113.242 30.8073C112.902 30.6073 112.462 30.4373 111.922 30.2973C111.382 30.1373 110.812 29.9673 110.212 29.7873C109.612 29.6073 109.042 29.3573 108.502 29.0373C107.962 28.7173 107.522 28.2773 107.182 27.7173C106.842 27.1373 106.672 26.4073 106.672 25.5273C106.672 24.5873 106.912 23.7773 107.392 23.0973C107.872 22.3973 108.552 21.8473 109.432 21.4473C110.312 21.0473 111.342 20.8473 112.522 20.8473C113.762 20.8473 114.902 21.0673 115.942 21.5073C117.002 21.9273 117.862 22.5573 118.522 23.3973L115.912 26.0373C115.452 25.4973 114.932 25.1173 114.352 24.8973C113.792 24.6773 113.242 24.5673 112.702 24.5673C112.182 24.5673 111.792 24.6473 111.532 24.8073C111.272 24.9473 111.142 25.1573 111.142 25.4373C111.142 25.7373 111.312 25.9773 111.652 26.1573C111.992 26.3373 112.432 26.4973 112.972 26.6373C113.512 26.7773 114.082 26.9473 114.682 27.1473C115.282 27.3473 115.852 27.6173 116.392 27.9573C116.932 28.2973 117.372 28.7573 117.712 29.3373C118.052 29.8973 118.222 30.6373 118.222 31.5573C118.222 32.9773 117.682 34.1073 116.602 34.9473C115.542 35.7873 114.102 36.2073 112.282 36.2073ZM122.782 35.8473V15.2373H127.372V35.8473H122.782ZM119.482 25.1673V21.2673H130.672V25.1673H119.482ZM143.105 36.1773C141.565 36.1773 140.115 35.8973 138.755 35.3373C137.415 34.7773 136.245 34.0073 135.245 33.0273C134.245 32.0273 133.455 30.8673 132.875 29.5473C132.315 28.2073 132.035 26.7673 132.035 25.2273C132.035 23.6873 132.325 22.2573 132.905 20.9373C133.485 19.6173 134.285 18.4673 135.305 17.4873C136.345 16.4873 137.555 15.7173 138.935 15.1773C140.315 14.6173 141.795 14.3373 143.375 14.3373C145.195 14.3373 146.845 14.6673 148.325 15.3273C149.825 15.9873 151.065 16.8973 152.045 18.0573L148.835 21.2673C148.155 20.3873 147.355 19.7273 146.435 19.2873C145.515 18.8473 144.475 18.6273 143.315 18.6273C142.075 18.6273 140.965 18.9073 139.985 19.4673C139.005 20.0073 138.235 20.7773 137.675 21.7773C137.135 22.7573 136.865 23.9073 136.865 25.2273C136.865 26.5473 137.135 27.7073 137.675 28.7073C138.215 29.7073 138.955 30.4873 139.895 31.0473C140.835 31.6073 141.915 31.8873 143.135 31.8873C144.375 31.8873 145.425 31.6573 146.285 31.1973C147.165 30.7173 147.835 30.0373 148.295 29.1573C148.775 28.2573 149.015 27.1673 149.015 25.8873L152.135 27.9873L142.685 27.8373V23.8473H153.815V24.5373C153.815 27.0773 153.355 29.2173 152.435 30.9573C151.535 32.6773 150.275 33.9773 148.655 34.8573C147.055 35.7373 145.205 36.1773 143.105 36.1773ZM162.339 36.1473C160.999 36.1473 159.799 35.8173 158.739 35.1573C157.699 34.4973 156.869 33.5973 156.249 32.4573C155.649 31.3173 155.349 30.0173 155.349 28.5573C155.349 27.0973 155.649 25.7973 156.249 24.6573C156.869 23.5173 157.699 22.6173 158.739 21.9573C159.799 21.2973 160.999 20.9673 162.339 20.9673C163.319 20.9673 164.199 21.1573 164.979 21.5373C165.779 21.9173 166.429 22.4473 166.929 23.1273C167.429 23.7873 167.709 24.5473 167.769 25.4073V31.7073C167.709 32.5673 167.429 33.3373 166.929 34.0173C166.449 34.6773 165.809 35.1973 165.009 35.5773C164.209 35.9573 163.319 36.1473 162.339 36.1473ZM163.269 32.0073C164.249 32.0073 165.039 31.6873 165.639 31.0473C166.239 30.3873 166.539 29.5573 166.539 28.5573C166.539 27.8773 166.399 27.2773 166.119 26.7573C165.859 26.2373 165.479 25.8373 164.979 25.5573C164.499 25.2573 163.939 25.1073 163.299 25.1073C162.659 25.1073 162.089 25.2573 161.589 25.5573C161.109 25.8373 160.719 26.2373 160.419 26.7573C160.139 27.2773 159.999 27.8773 159.999 28.5573C159.999 29.2173 160.139 29.8073 160.419 30.3273C160.699 30.8473 161.089 31.2573 161.589 31.5573C162.089 31.8573 162.649 32.0073 163.269 32.0073ZM166.359 35.8473V31.9173L167.049 28.3773L166.359 24.8373V21.2673H170.859V35.8473H166.359ZM174.091 35.8473V21.2673H178.681V35.8473H174.091ZM178.681 27.8373L176.761 26.3373C177.141 24.6373 177.781 23.3173 178.681 22.3773C179.581 21.4373 180.831 20.9673 182.431 20.9673C183.131 20.9673 183.741 21.0773 184.261 21.2973C184.801 21.4973 185.271 21.8173 185.671 22.2573L182.941 25.7073C182.741 25.4873 182.491 25.3173 182.191 25.1973C181.891 25.0773 181.551 25.0173 181.171 25.0173C180.411 25.0173 179.801 25.2573 179.341 25.7373C178.901 26.1973 178.681 26.8973 178.681 27.8373ZM192.694 36.1473C191.314 36.1473 190.084 35.8173 189.004 35.1573C187.944 34.4973 187.104 33.5973 186.484 32.4573C185.884 31.3173 185.584 30.0173 185.584 28.5573C185.584 27.0973 185.884 25.7973 186.484 24.6573C187.104 23.5173 187.944 22.6173 189.004 21.9573C190.084 21.2973 191.314 20.9673 192.694 20.9673C193.694 20.9673 194.594 21.1573 195.394 21.5373C196.214 21.9173 196.884 22.4473 197.404 23.1273C197.944 23.7873 198.244 24.5473 198.304 25.4073V31.5573C198.244 32.4173 197.954 33.1973 197.434 33.8973C196.914 34.5773 196.244 35.1273 195.424 35.5473C194.604 35.9473 193.694 36.1473 192.694 36.1473ZM193.504 32.0073C194.164 32.0073 194.734 31.8673 195.214 31.5873C195.694 31.2873 196.074 30.8773 196.354 30.3573C196.634 29.8373 196.774 29.2373 196.774 28.5573C196.774 27.8773 196.634 27.2873 196.354 26.7873C196.094 26.2673 195.714 25.8573 195.214 25.5573C194.734 25.2573 194.174 25.1073 193.534 25.1073C192.894 25.1073 192.324 25.2573 191.824 25.5573C191.344 25.8573 190.954 26.2673 190.654 26.7873C190.374 27.3073 190.234 27.8973 190.234 28.5573C190.234 29.2173 190.374 29.8073 190.654 30.3273C190.934 30.8473 191.324 31.2573 191.824 31.5573C192.324 31.8573 192.884 32.0073 193.504 32.0073ZM201.094 35.8473H196.594V31.9173L197.284 28.3773L196.504 24.8373V14.0673H201.094V35.8473ZM211.526 36.1773C209.946 36.1773 208.536 35.8573 207.296 35.2173C206.076 34.5573 205.116 33.6473 204.416 32.4873C203.716 31.3273 203.366 30.0173 203.366 28.5573C203.366 27.0973 203.706 25.7973 204.386 24.6573C205.086 23.4973 206.026 22.5873 207.206 21.9273C208.386 21.2673 209.716 20.9373 211.196 20.9373C212.636 20.9373 213.906 21.2473 215.006 21.8673C216.106 22.4873 216.966 23.3473 217.586 24.4473C218.226 25.5473 218.546 26.8073 218.546 28.2273C218.546 28.4873 218.526 28.7673 218.486 29.0673C218.466 29.3473 218.416 29.6773 218.336 30.0573L205.766 30.0873V26.9373L216.386 26.9073L214.406 28.2273C214.386 27.3873 214.256 26.6973 214.016 26.1573C213.776 25.5973 213.416 25.1773 212.936 24.8973C212.476 24.5973 211.906 24.4473 211.226 24.4473C210.506 24.4473 209.876 24.6173 209.336 24.9573C208.816 25.2773 208.406 25.7373 208.106 26.3373C207.826 26.9373 207.686 27.6673 207.686 28.5273C207.686 29.3873 207.836 30.1273 208.136 30.7473C208.456 31.3473 208.896 31.8173 209.456 32.1573C210.036 32.4773 210.716 32.6373 211.496 32.6373C212.216 32.6373 212.866 32.5173 213.446 32.2773C214.026 32.0173 214.536 31.6373 214.976 31.1373L217.496 33.6573C216.776 34.4973 215.906 35.1273 214.886 35.5473C213.866 35.9673 212.746 36.1773 211.526 36.1773ZM230.391 35.8473V27.5373C230.391 26.7773 230.151 26.1673 229.671 25.7073C229.211 25.2273 228.621 24.9873 227.901 24.9873C227.401 24.9873 226.961 25.0973 226.581 25.3173C226.201 25.5173 225.901 25.8173 225.681 26.2173C225.461 26.5973 225.351 27.0373 225.351 27.5373L223.581 26.6673C223.581 25.5273 223.831 24.5273 224.331 23.6673C224.831 22.8073 225.521 22.1473 226.401 21.6873C227.301 21.2073 228.311 20.9673 229.431 20.9673C230.511 20.9673 231.461 21.2273 232.281 21.7473C233.121 22.2473 233.781 22.9173 234.261 23.7573C234.741 24.5973 234.981 25.5173 234.981 26.5173V35.8473H230.391ZM220.761 35.8473V21.2673H225.351V35.8473H220.761Z" fill="white"/>
</svg>
